{"title":"Marvels.Agents.Of.S.H.I.E.L.D.S03E20.1080p.HDTV.x264-SERIOUSLY","uid":14842251,"size":1588980045,"categoryP":"video","categoryS":"hd___tv_shows","magnet":"?xt=urn:btih:b34cad0cb810b61432759adf047b3f0f9d81c698&amp;dn=Marvels.Agents.Of.S.H.I.E.L.D.S03E20.1080p.HDTV.x264-SERIOUSLY&amp;tr=udp%3A%2F%2Ftracker.leechers-paradise.org%3A6969&amp;tr=udp%3A%2F%2Fzer0day.ch%3A1337&amp;tr=udp%3A%2F%2Fopen.demonii.com%3A1337&amp;tr=udp%3A%2F%2Ftracker.coppersurfer.tk%3A6969&amp;tr=udp%3A%2F%2Fexodus.desync.com%3A6969","seeders":0,"leechers":1,"uploader":"softminus","files":3,"time":1465385793,"description":"Marvels.Agents.Of.S.H.I.E.L.D.S03E20.1080p.HDTV.x264-SERIOUSLY\r\n\r\n\r\nVideo\r\nID : 1\r\nFormat : AVC\r\nFormat/Info : Advanced Video Codec\r\nFormat profile :   \r\nFormat settings, CABAC : Yes\r\nFormat settings, ReFrames : 4 frames\r\nCodec ID : V_MPEG4/ISO/AVC\r\nDuration : 40mn 59s\r\nBit rate : 4 974 Kbps\r\nWidth : 1 920 pixels\r\nHeight : 1 080 pixels\r\nDisplay aspect ratio : 16:9\r\nFrame rate mode : Constant\r\nFrame rate : 25.000 fps\r\nColor space : YUV\r\nChroma subsampling : 4:2:0\r\nBit depth : 8 bits\r\nScan type : Progressive\r\nBits/(Pixel*Frame) : 0.096\r\nStream size : 1.42 GiB (96%)\r\nForced: No\r\n\r\nAudio\r\nID : 2\r\nFormat : AC-3\r\nFormat/Info : Audio Coding 3\r\nMode extension : CM (complete main)\r\nFormat settings, Endianness : Big\r\nCodec ID : A_AC3\r\nDuration : 40mn 59s\r\nBit rate mode : Constant\r\nBit rate : 192 Kbps\r\nChannel(s) : 2 channels\r\nChannel positions : Front: L R\r\nSampling rate : 48.0 KHz\r\nFrame rate : 31.250 fps (1536 spf)\r\nCompression mode : Lossy\r\nStream size : 56.3 MiB (4%)\r\nLanguage : English\r\nDefault : Yes\r\nForced : No","torrent":{"xt":"urn:btih:b34cad0cb810b61432759adf047b3f0f9d81c698","amp;dn":"Marvels.Agents.Of.S.H.I.E.L.D.S03E20.1080p.HDTV.x264-SERIOUSLY","amp;tr":["udp%3A%2F%2Ftracker.leechers-paradise.org%3A6969","udp%3A%2F%2Fzer0day.ch%3A1337","udp%3A%2F%2Fopen.demonii.com%3A1337","udp%3A%2F%2Ftracker.coppersurfer.tk%3A6969","udp%3A%2F%2Fexodus.desync.com%3A6969"],"infoHash":"b34cad0cb810b61432759adf047b3f0f9d81c698","infoHashBuffer":{"type":"Buffer","data":[179,76,173,12,184,16,182,20,50,117,154,223,4,123,63,15,157,129,198,152]},"announce":[],"urlList":[]}}